<mxfile host="app.diagrams.net" modified="2023-09-06T21:31:34.959Z" agent="Mozilla/5.0 (X11; Linux x86_64) AppleWebKit/537.36 (KHTML, like Gecko) Chrome/115.0.0.0 Safari/537.36" etag="rd7qI_5WeI8bbNTPO0Ij" version="21.7.2" type="github">
  <diagram name="第 1 页" id="GHLlBRsRtrWJSYOFZHYV">
    <mxGraphModel dx="1004" dy="584" grid="1" gridSize="10" guides="1" tooltips="1" connect="1" arrows="1" fold="1" page="1" pageScale="1" pageWidth="827" pageHeight="1169" math="0" shadow="0">
      <root>
        <mxCell id="0" />
        <mxCell id="1" parent="0" />
        <mxCell id="1wILSktga3aHHnEtoS_7-1" value="Middlewares&lt;br style=&quot;font-size: 17px;&quot;&gt;&lt;br&gt;&lt;br&gt;" style="rounded=1;whiteSpace=wrap;html=1;fillColor=none;fontSize=17;" vertex="1" parent="1">
          <mxGeometry x="210" y="260" width="340" height="70" as="geometry" />
        </mxCell>
        <mxCell id="1wILSktga3aHHnEtoS_7-3" value="" style="shape=image;verticalLabelPosition=bottom;labelBackgroundColor=#ffffff;verticalAlign=top;aspect=fixed;imageAspect=0;image=data:image/svg+xml,PHN2ZyB4bWxuczpjYz0iaHR0cDovL2NyZWF0aXZlY29tbW9ucy5vcmcvbnMjIiB4bWxuczpkYz0iaHR0cDovL3B1cmwub3JnL2RjL2VsZW1lbnRzLzEuMS8iIHhtbG5zOmlua3NjYXBlPSJodHRwOi8vd3d3Lmlua3NjYXBlLm9yZy9uYW1lc3BhY2VzL2lua3NjYXBlIiB4bWxuczpyZGY9Imh0dHA6Ly93d3cudzMub3JnLzE5OTkvMDIvMjItcmRmLXN5bnRheC1ucyMiIHhtbG5zOnNvZGlwb2RpPSJodHRwOi8vc29kaXBvZGkuc291cmNlZm9yZ2UubmV0L0RURC9zb2RpcG9kaS0wLmR0ZCIgeG1sbnM6c3ZnPSJodHRwOi8vd3d3LnczLm9yZy8yMDAwL3N2ZyIgeG1sbnM9Imh0dHA6Ly93d3cudzMub3JnLzIwMDAvc3ZnIiB4bWxuczp4bGluaz0iaHR0cDovL3d3dy53My5vcmcvMTk5OS94bGluayIgdmVyc2lvbj0iMS4xIiBpZD0ic3ZnOTgxNTYiIGlua3NjYXBlOnZlcnNpb249IjAuOTIuMyAoMjQwNTU0NiwgMjAxOC0wMy0xMSkiIHNvZGlwb2RpOmRvY25hbWU9ImRhdGFfc3luY2hyb25pemF0aW9uLnN2ZyIgeD0iMHB4IiB5PSIwcHgiIHZpZXdCb3g9IjAgMCA1MS41IDMxLjc5IiBzdHlsZT0iZW5hYmxlLWJhY2tncm91bmQ6bmV3IDAgMCA1MS41IDMxLjc5OyIgeG1sOnNwYWNlPSJwcmVzZXJ2ZSI+JiN4YTs8c29kaXBvZGk6bmFtZWR2aWV3IGJvcmRlcmNvbG9yPSIjNjY2NjY2IiBib3JkZXJvcGFjaXR5PSIxIiBmaXQtbWFyZ2luLWJvdHRvbT0iMCIgZml0LW1hcmdpbi1sZWZ0PSIwIiBmaXQtbWFyZ2luLXJpZ2h0PSIwIiBmaXQtbWFyZ2luLXRvcD0iMCIgZ3JpZHRvbGVyYW5jZT0iMTAiIGd1aWRldG9sZXJhbmNlPSIxMCIgaWQ9Im5hbWVkdmlldzk4MTU4IiBpbmtzY2FwZTpjdXJyZW50LWxheWVyPSJzdmc5ODE1NiIgaW5rc2NhcGU6Y3g9IjM0LjMzNTg4OSIgaW5rc2NhcGU6Y3k9IjIxLjE5MjM0NSIgaW5rc2NhcGU6cGFnZW9wYWNpdHk9IjAiIGlua3NjYXBlOnBhZ2VzaGFkb3c9IjIiIGlua3NjYXBlOndpbmRvdy1oZWlnaHQ9IjEwMTciIGlua3NjYXBlOndpbmRvdy1tYXhpbWl6ZWQ9IjEiIGlua3NjYXBlOndpbmRvdy13aWR0aD0iMTkyMCIgaW5rc2NhcGU6d2luZG93LXg9Ii04IiBpbmtzY2FwZTp3aW5kb3cteT0iLTgiIGlua3NjYXBlOnpvb209IjIwLjQ1MzU2MiIgb2JqZWN0dG9sZXJhbmNlPSIxMCIgcGFnZWNvbG9yPSIjZmZmZmZmIiBzaG93Z3JpZD0iZmFsc2UiPiYjeGE7CTwvc29kaXBvZGk6bmFtZWR2aWV3PiYjeGE7PGcgaWQ9Imc5ODE1NCIgdHJhbnNmb3JtPSJ0cmFuc2xhdGUoMCwtMC4wMDQzKSI+JiN4YTsJPHRpdGxlIGlkPSJ0aXRsZTk4MTE5Ij5QYWdlLTE8L3RpdGxlPiYjeGE7CTxnIGlkPSJncm91cDM4NjQtMSI+JiN4YTsJCTx0aXRsZSBpZD0idGl0bGU5ODEyMSI+RGF0YSBTeW5jaHJvbml6YXRpb248L3RpdGxlPiYjeGE7CQk8ZyBpZD0ic2hhcGUzODY1LTIiIHRyYW5zZm9ybT0idHJhbnNsYXRlKDAsLTcuODY1NykiPiYjeGE7CQkJPHRpdGxlIGlkPSJ0aXRsZTk4MTIzIj5TaGVldC4zODY1PC90aXRsZT4mI3hhOwkJCTxwYXRoIGlkPSJwYXRoOTgxMjUiIGlua3NjYXBlOmNvbm5lY3Rvci1jdXJ2YXR1cmU9IjAiIHN0eWxlPSJmaWxsOiMzRjU3NjU7IiBkPSJNMjIuODMsMTAuNDVjLTIuNDItMS44My02LjEzLTIuNTItMTAuNTgtMi41OCAgICAgYy0yLjk5LDAtNS42OSwwLjQtNy43OSwxLjEyYy0xLjA4LDAuMzctMi4wMiwwLjgtMi44NCwxLjQ2QzAuODMsMTEuMDYsMCwxMi4xMSwwLDEzLjUxYzAsMTEuOTQsMCwxMS45NCwwLDExLjk0ICAgICBjMCwxLjMzLDAuNjYsMi40NSwxLjQ2LDMuMTljMi40MSwyLjIxLDYuMjUsMy4wOSwxMC43OSwzLjE1YzEuMTEsMCwyLjI1LTAuMDYsMy4yOC0wLjJjMCwwLDUuNTMtMC45OSw3LjQyLTIuODkgICAgIGMwLjA1LDAsMC4wNSwwLDAuMDUsMGMwLjc5LTAuNzUsMS40NS0xLjg2LDEuNDUtMy4xOWMwLDAsMCwwLDAtNi40NGwwLDBjMC01LjU2LDAtNS41NiwwLTUuNTYgICAgIEMyNC40NSwxMi4xMSwyMy42MywxMS4wNiwyMi44MywxMC40NXogTTEyLjI1LDEwLjEyYzUuNDgsMCw5Ljk3LDEuNTIsOS45NywzLjM5YzAsMS44OC00LjQ5LDMuNC05Ljk3LDMuNCAgICAgYy01LjUzLDAtOS45OS0xLjUyLTkuOTktMy40QzIuMjYsMTEuNjQsNi43MiwxMC4xMiwxMi4yNSwxMC4xMnogTTIuMjYsMTUuODVjMC4yNSwwLjIyLDAuNTUsMC40MywwLjg3LDAuNjEgICAgIGMyLjA3LDEuMTMsNS4zMiwxLjc2LDkuMTIsMS43OWMyLjgzLDAsNS40NC0wLjM5LDcuNC0xLjA3YzEtMC4zMywxLjgyLTAuNzUsMi41MS0xLjI2YzAuMDEtMC4wMywwLjA0LTAuMDYsMC4wNi0wLjA3ICAgICBjMCwyLjQ0LDAsMi40NCwwLDIuNDRjMCwwLjY1LDAsMC42NSwwLDAuNjVjLTIuMzUsMC45OC01LjQxLDEuNDgtNS40MSwxLjQ4Yy0xLjM3LDAuMjQtMi45NywwLjQtNC42NCwwLjQgICAgIGMtNS4zNSwwLTkuNzEtMS40NS05LjkxLTMuMjNDMi4yNiwxNS44NSwyLjI2LDE1Ljg1LDIuMjYsMTUuODV6IE0yLjI2LDIxLjk5YzAtMS40NiwwLTIuMDIsMC0yLjIyYzAuMjcsMC4yMywwLjU3LDAuNCwwLjg3LDAuNjEgICAgIGMyLjA3LDEuMTEsNS4zMSwxLjczLDkuMDQsMS43M2MxLjM0LDAsMi42My0wLjEzLDMuODEtMC4yNGMyLjY3LTAuMjQsNS4yLTEuMDYsNi4yNC0xLjQzYzAsMi43NSwwLDIuNzUsMCwyLjc1ICAgICBjLTQuOSwxLjQzLTYuNTcsMS41My02LjU3LDEuNTNjLTEuMDgsMC4xNC0yLjI3LDAuMjItMy40OCwwLjIyYy01LjA1LDAtOS4yMi0xLjI3LTkuOTEtMi44OUMyLjI2LDIxLjk5LDIuMjYsMjEuOTksMi4yNiwyMS45OXogICAgICBNMTIuMjUsMjkuNTZjLTUuNTMsMC05Ljk5LTEuODQtOS45OS00LjExYzAtMC41OSwwLTEuMDgsMC0xLjQ4YzAuMjUsMC4xOSwwLjUxLDAuMzQsMC43OSwwLjVjMi4wNiwxLjE0LDUuMzUsMS43OCw5LjEyLDEuNzggICAgIGMxLjIxLDAsMi4zNi0wLjA5LDMuNDUtMC4yYzIuNTYtMC4zMiw1LjIzLTEuMDYsNi42LTEuNDdjMCwyLjA1LDAsMi4wNSwwLDIuMDVjLTAuMTMsMC4zNC0wLjUyLDAuOTItMS43NCwxLjU3ICAgICBjLTMuMDUsMC45My00LjkxLDEuMTMtNC45MSwxLjEzQzE0LjU0LDI5LjQ5LDEzLjM4LDI5LjU2LDEyLjI1LDI5LjU2eiIvPiYjeGE7CQk8L2c+JiN4YTsJCTxnIGlkPSJzaGFwZTM4NjYtNCIgdHJhbnNmb3JtPSJ0cmFuc2xhdGUoMjcuMDUzMiwtNy44NjU3KSI+JiN4YTsJCQk8dGl0bGUgaWQ9InRpdGxlOTgxMjgiPlNoZWV0LjM4NjY8L3RpdGxlPiYjeGE7CQkJPHBhdGggaWQ9InBhdGg5ODEzMCIgaW5rc2NhcGU6Y29ubmVjdG9yLWN1cnZhdHVyZT0iMCIgc3R5bGU9ImZpbGw6IzNGNTc2NTsiIGQ9Ik0yMi44MywxMC40NWMtMi40Mi0xLjgzLTYuMTMtMi41Mi0xMC41OC0yLjU4ICAgICBjLTIuOTksMC01LjY5LDAuNC03Ljc5LDEuMTJjLTEuMDgsMC4zNy0yLjAyLDAuOC0yLjg0LDEuNDZDMC44MywxMS4wNiwwLDEyLjExLDAsMTMuNTFjMCwxMS45NCwwLDExLjk0LDAsMTEuOTQgICAgIGMwLDEuMzMsMC42NiwyLjQ1LDEuNDYsMy4xOWMyLjQxLDIuMjEsNi4yNSwzLjA5LDEwLjc5LDMuMTVjMS4xMSwwLDIuMjUtMC4wNiwzLjI4LTAuMmMwLDAsNS41My0wLjk5LDcuNDItMi44OSAgICAgYzAuMDUsMCwwLjA1LDAsMC4wNSwwYzAuNzktMC43NSwxLjQ1LTEuODYsMS40NS0zLjE5YzAsMCwwLDAsMC02LjQ0bDAsMGMwLTUuNTYsMC01LjU2LDAtNS41NiAgICAgQzI0LjQ1LDEyLjExLDIzLjYzLDExLjA2LDIyLjgzLDEwLjQ1eiBNMTIuMjUsMTAuMTJjNS40OCwwLDkuOTcsMS41Miw5Ljk3LDMuMzljMCwxLjg4LTQuNDksMy40LTkuOTcsMy40ICAgICBjLTUuNTMsMC05Ljk5LTEuNTItOS45OS0zLjRDMi4yNiwxMS42NCw2LjcyLDEwLjEyLDEyLjI1LDEwLjEyeiBNMi4yNiwxNS44NWMwLjI1LDAuMjIsMC41NSwwLjQzLDAuODcsMC42MSAgICAgYzIuMDcsMS4xMyw1LjMyLDEuNzYsOS4xMiwxLjc5YzIuODMsMCw1LjQ0LTAuMzksNy40LTEuMDdjMS0wLjMzLDEuODItMC43NSwyLjUxLTEuMjZjMC4wMS0wLjAzLDAuMDQtMC4wNiwwLjA2LTAuMDcgICAgIGMwLDIuNDQsMCwyLjQ0LDAsMi40NGMwLDAuNjUsMCwwLjY1LDAsMC42NWMtMi4zNSwwLjk4LTUuNDEsMS40OC01LjQxLDEuNDhjLTEuMzcsMC4yNC0yLjk3LDAuNC00LjY0LDAuNCAgICAgYy01LjM1LDAtOS43MS0xLjQ1LTkuOTEtMy4yM0MyLjI2LDE1Ljg1LDIuMjYsMTUuODUsMi4yNiwxNS44NXogTTIuMjYsMjEuOTljMC0xLjQ2LDAtMi4wMiwwLTIuMjJjMC4yNywwLjIzLDAuNTcsMC40LDAuODcsMC42MSAgICAgYzIuMDcsMS4xMSw1LjMxLDEuNzMsOS4wNCwxLjczYzEuMzQsMCwyLjYzLTAuMTMsMy44MS0wLjI0YzIuNjctMC4yNCw1LjItMS4wNiw2LjI0LTEuNDNjMCwyLjc1LDAsMi43NSwwLDIuNzUgICAgIGMtNC45LDEuNDMtNi41NywxLjUzLTYuNTcsMS41M2MtMS4wOCwwLjE0LTIuMjcsMC4yMi0zLjQ4LDAuMjJjLTUuMDUsMC05LjIyLTEuMjctOS45MS0yLjg5QzIuMjYsMjEuOTksMi4yNiwyMS45OSwyLjI2LDIxLjk5eiAgICAgIE0xMi4yNSwyOS41NmMtNS41MywwLTkuOTktMS44NC05Ljk5LTQuMTFjMC0wLjU5LDAtMS4wOCwwLTEuNDhjMC4yNSwwLjE5LDAuNTEsMC4zNCwwLjc5LDAuNWMyLjA2LDEuMTQsNS4zNSwxLjc4LDkuMTIsMS43OCAgICAgYzEuMjEsMCwyLjM2LTAuMDksMy40NS0wLjJjMi41Ni0wLjMyLDUuMjMtMS4wNiw2LjYtMS40N2MwLDIuMDUsMCwyLjA1LDAsMi4wNWMtMC4xMywwLjM0LTAuNTIsMC45Mi0xLjc0LDEuNTcgICAgIGMtMy4wNSwwLjkzLTQuOTEsMS4xMy00LjkxLDEuMTNDMTQuNTQsMjkuNDksMTMuMzgsMjkuNTYsMTIuMjUsMjkuNTZ6Ii8+JiN4YTsJCTwvZz4mI3hhOwkJPGcgaWQ9InNoYXBlMzg2Ny02IiB0cmFuc2Zvcm09InRyYW5zbGF0ZSgxNC4zODI3LC0xNC4yMjMxKSI+JiN4YTsJCQk8dGl0bGUgaWQ9InRpdGxlOTgxMzMiPlNoZWV0LjM4Njc8L3RpdGxlPiYjeGE7CQkJPHBhdGggaWQ9InBhdGg5ODEzNSIgaW5rc2NhcGU6Y29ubmVjdG9yLWN1cnZhdHVyZT0iMCIgc3R5bGU9ImZpbGw6IzdGQkEwMDsiIGQ9Ik0wLDI3LjgzYzAtMi4xOSw0Ljk0LTMuOTcsMTEuMDMtMy45NyAgICAgczExLjAyLDEuNzgsMTEuMDIsMy45N3MtNC45MywzLjk2LTExLjAyLDMuOTZTMCwzMC4wMiwwLDI3LjgzeiIvPiYjeGE7CQk8L2c+JiN4YTsJCTxnIGlkPSJzaGFwZTM4NjgtOCIgdHJhbnNmb3JtPSJ0cmFuc2xhdGUoMTQuMzgyNywtMS4zMDMxOSkiPiYjeGE7CQkJPHRpdGxlIGlkPSJ0aXRsZTk4MTM4Ij5TaGVldC4zODY4PC90aXRsZT4mI3hhOwkJCTxwYXRoIGlkPSJwYXRoOTgxNDAiIGlua3NjYXBlOmNvbm5lY3Rvci1jdXJ2YXR1cmU9IjAiIHN0eWxlPSJmaWxsOiM3RkJBMDA7IiBkPSJNMCwyNy44M2MwLTIuMTksNC45NC0zLjk3LDExLjAzLTMuOTcgICAgIHMxMS4wMiwxLjc4LDExLjAyLDMuOTdzLTQuOTMsMy45Ni0xMS4wMiwzLjk2UzAsMzAuMDIsMCwyNy44M3oiLz4mI3hhOwkJPC9nPiYjeGE7CQk8ZyBpZD0ic2hhcGUzODY5LTEwIiB0cmFuc2Zvcm09InRyYW5zbGF0ZSgxNC41MTk3LC00LjM3OTM3KSI+JiN4YTsJCQk8dGl0bGUgaWQ9InRpdGxlOTgxNDMiPlNoZWV0LjM4Njk8L3RpdGxlPiYjeGE7CQkJPHBhdGggaWQ9InBhdGg5ODE0NSIgaW5rc2NhcGU6Y29ubmVjdG9yLWN1cnZhdHVyZT0iMCIgc3R5bGU9ImZpbGw6IzdGQkEwMDsiIGQ9Ik0wLDE4LjE5djEzLjZoMjIuNTN2LTEzLjZIMHoiLz4mI3hhOwkJPC9nPiYjeGE7CQk8ZyBpZD0ic2hhcGUzODcwLTEyIiB0cmFuc2Zvcm09InRyYW5zbGF0ZSgxMy45NTk0KSI+JiN4YTsJCQk8dGl0bGUgaWQ9InRpdGxlOTgxNDgiPlNoZWV0LjM4NzA8L3RpdGxlPiYjeGE7CQkJPHBhdGggaWQ9InBhdGg5ODE1MCIgaW5rc2NhcGU6Y29ubmVjdG9yLWN1cnZhdHVyZT0iMCIgc3R5bGU9ImZpbGw6IzNGNTc2NTsiIGQ9Ik0yMi45LDEwLjM5Yy0yLjQzLTEuODQtNi4xNS0yLjUyLTEwLjYyLTIuNTkgICAgIGMtMi45OSwwLTUuNywwLjQtNy44MSwxLjEyQzMuMzksOS4zLDIuNDUsOS43MywxLjYzLDEwLjM5QzAuODMsMTEsMCwxMi4wNSwwLDEzLjQ2YzAsMTEuOTcsMCwxMS45NywwLDExLjk3ICAgICBjMCwxLjM0LDAuNjYsMi40NiwxLjQ2LDMuMmMyLjQxLDIuMjIsNi4yNywzLjEsMTAuODIsMy4xNmMxLjExLDAsMi4yNi0wLjA2LDMuMjktMC4yYzAsMCw1LjU1LTEsNy40NS0yLjljMC4wNCwwLDAuMDQsMCwwLjA0LDAgICAgIGMwLjgtMC43NCwxLjQ2LTEuODcsMS40Ni0zLjJjMCwwLDAsMCwwLTYuNDZsMCwwYzAtNS41NywwLTUuNTcsMC01LjU3QzI0LjUyLDEyLjA1LDIzLjcsMTEsMjIuOSwxMC4zOXogTTEyLjI4LDEwLjA1ICAgICBjNS41LDAsMTAuMDEsMS41MywxMC4wMSwzLjQxYzAsMS44OS00LjUxLDMuNDEtMTAuMDEsMy40MWMtNS41MywwLTEwLjAyLTEuNTItMTAuMDItMy40MUMyLjI2LDExLjU4LDYuNzUsMTAuMDUsMTIuMjgsMTAuMDV6ICAgICAgTTIuMjYsMTUuODFjMC4yNiwwLjIxLDAuNTYsMC40MywwLjg4LDAuNmMyLjA3LDEuMTQsNS4zNCwxLjc3LDkuMTQsMS44YzIuODQsMCw1LjQ2LTAuMzksNy40Mi0xLjA3ICAgICBjMS4wMS0wLjM0LDEuODMtMC43NiwyLjUyLTEuMjdjMC4wMS0wLjAyLDAuMDQtMC4wNSwwLjA3LTAuMDZjMCwyLjQ0LDAsMi40NCwwLDIuNDRjMCwwLjY1LDAsMC42NSwwLDAuNjUgICAgIGMtMi4zNiwwLjk4LTUuNDMsMS40OC01LjQzLDEuNDhjLTEuMzgsMC4yNS0yLjk4LDAuNDEtNC42NiwwLjQxYy01LjM2LDAtOS43My0xLjQ2LTkuOTQtMy4yNEMyLjI2LDE1LjgxLDIuMjYsMTUuODEsMi4yNiwxNS44MXogICAgICBNMi4yNiwyMS45NmMwLTEuNDcsMC0yLjAyLDAtMi4yM2MwLjI3LDAuMjQsMC41NywwLjQxLDAuODgsMC42MWMyLjA3LDEuMTIsNS4zMiwxLjc0LDkuMDYsMS43NGMxLjM0LDAsMi42NC0wLjEzLDMuODItMC4yNCAgICAgYzIuNjgtMC4yNCw1LjIyLTEuMDYsNi4yNy0xLjQzYzAsMi43NiwwLDIuNzYsMCwyLjc2Yy00LjkyLDEuNDMtNi42LDEuNTMtNi42LDEuNTNjLTEuMDgsMC4xNC0yLjI3LDAuMjItMy40OSwwLjIyICAgICBjLTUuMDYsMC05LjI1LTEuMjctOS45NC0yLjlDMi4yNiwyMS45NiwyLjI2LDIxLjk2LDIuMjYsMjEuOTZ6IE0xMi4yOCwyOS41NWMtNS41MywwLTEwLjAyLTEuODUtMTAuMDItNC4xMiAgICAgYzAtMC41OSwwLTEuMDgsMC0xLjQ4YzAuMjYsMC4xOSwwLjUyLDAuMzMsMC44LDAuNWMyLjA2LDEuMTUsNS4zNiwxLjc4LDkuMTQsMS43OGMxLjIyLDAsMi4zNy0wLjA4LDMuNDctMC4yICAgICBjMi41Ni0wLjMxLDUuMjQtMS4wNiw2LjYyLTEuNDdjMCwyLjA2LDAsMi4wNiwwLDIuMDZjLTAuMTQsMC4zNC0wLjUzLDAuOTItMS43NSwxLjU3Yy0zLjA2LDAuOTMtNC45MywxLjEzLTQuOTMsMS4xMyAgICAgQzE0LjU4LDI5LjQ4LDEzLjQyLDI5LjU1LDEyLjI4LDI5LjU1eiIvPiYjeGE7CQk8L2c+JiN4YTsJPC9nPiYjeGE7PC9nPiYjeGE7PC9zdmc+;fontSize=17;" vertex="1" parent="1">
          <mxGeometry x="213.13" y="520" width="113.75" height="70" as="geometry" />
        </mxCell>
        <mxCell id="1wILSktga3aHHnEtoS_7-5" value="manager(handler)" style="rounded=1;whiteSpace=wrap;html=1;fillColor=none;fontSize=17;" vertex="1" parent="1">
          <mxGeometry x="210" y="350" width="260" height="40" as="geometry" />
        </mxCell>
        <mxCell id="1wILSktga3aHHnEtoS_7-6" value="Logger" style="rounded=1;whiteSpace=wrap;html=1;fillColor=none;fontSize=17;" vertex="1" parent="1">
          <mxGeometry x="221.5" y="290" width="77" height="30" as="geometry" />
        </mxCell>
        <mxCell id="1wILSktga3aHHnEtoS_7-7" value="DAL" style="rounded=1;whiteSpace=wrap;html=1;fillColor=none;fontSize=17;" vertex="1" parent="1">
          <mxGeometry x="210" y="410" width="110" height="40" as="geometry" />
        </mxCell>
        <mxCell id="1wILSktga3aHHnEtoS_7-8" value="缓存" style="rounded=1;whiteSpace=wrap;html=1;fillColor=none;fontSize=17;" vertex="1" parent="1">
          <mxGeometry x="210" y="470" width="110" height="40" as="geometry" />
        </mxCell>
        <mxCell id="1wILSktga3aHHnEtoS_7-9" value="errno" style="rounded=1;whiteSpace=wrap;html=1;fillColor=none;fontSize=17;" vertex="1" parent="1">
          <mxGeometry x="494" y="340" width="56" height="160" as="geometry" />
        </mxCell>
        <mxCell id="1wILSktga3aHHnEtoS_7-10" value="TLS" style="rounded=1;whiteSpace=wrap;html=1;fillColor=none;fontSize=17;" vertex="1" parent="1">
          <mxGeometry x="320" y="290" width="77" height="30" as="geometry" />
        </mxCell>
        <mxCell id="1wILSktga3aHHnEtoS_7-11" value="MQ" style="rounded=1;whiteSpace=wrap;html=1;fillColor=none;fontSize=17;" vertex="1" parent="1">
          <mxGeometry x="360" y="410" width="110" height="40" as="geometry" />
        </mxCell>
      </root>
    </mxGraphModel>
  </diagram>
</mxfile>
